HIERARCHY
ROOT Hip
{
    OFFSET 0.0 0.0 0.0
    CHANNELS 6 Xposition Yposition Zposition Zrotation Xrotation Yrotation
    JOINT RightHip
    {
        OFFSET -13.53016471862793 0.0 0.0
        CHANNELS 3 Zrotation Xrotation Yrotation
        JOINT RightKnee
        {
            OFFSET 0.0 0.0 -41.06925582885742
            CHANNELS 3 Zrotation Xrotation Yrotation
            JOINT RightAnkle
            {
                OFFSET 0.0 0.0 -43.31587600708008
                CHANNELS 3 Zrotation Xrotation Yrotation
                End Site
                {
                    OFFSET 0.0 -17.326351165771484 0.0
                }
            }
        }
    }
    JOINT LeftHip
    {
        OFFSET 13.53016471862793 0.0 0.0
        CHANNELS 3 Zrotation Xrotation Yrotation
        JOINT LeftKnee
        {
            OFFSET 0.0 0.0 -41.06925582885742
            CHANNELS 3 Zrotation Xrotation Yrotation
            JOINT LeftAnkle
            {
                OFFSET 0.0 0.0 -43.31587600708008
                CHANNELS 3 Zrotation Xrotation Yrotation
                End Site
                {
                    OFFSET 0.0 -17.326351165771484 0.0
                }
            }
        }
    }
    JOINT Spine
    {
        OFFSET 0.0 0.0 44.37949752807617
        CHANNELS 3 Zrotation Xrotation Yrotation
        JOINT Thorax
        {
            OFFSET 0.0 0.0 15.433497428894043
            CHANNELS 3 Zrotation Xrotation Yrotation
            JOINT Neck
            {
                OFFSET 0.0 0.0 0.0
                CHANNELS 3 Zrotation Xrotation Yrotation
                End Site
                {
                    OFFSET 0.0 0.0 0.0
                }
            }
            JOINT LeftShoulder
            {
                OFFSET 24.24563980102539 0.0 0.0
                CHANNELS 3 Zrotation Xrotation Yrotation
                JOINT LeftElbow
                {
                    OFFSET 33.23247528076172 0.0 0.0
                    CHANNELS 3 Zrotation Xrotation Yrotation
                    JOINT LeftWrist
                    {
                        OFFSET 28.62566375732422 0.0 0.0
                        CHANNELS 3 Zrotation Xrotation Yrotation
                        End Site
                        {
                            OFFSET 11.450264930725098 0.0 0.0
                        }
                    }
                }
            }
            JOINT RightShoulder
            {
                OFFSET -24.24563980102539 0.0 0.0
                CHANNELS 3 Zrotation Xrotation Yrotation
                JOINT RightElbow
                {
                    OFFSET -33.23247528076172 0.0 0.0
                    CHANNELS 3 Zrotation Xrotation Yrotation
                    JOINT RightWrist
                    {
                        OFFSET -28.62566375732422 0.0 0.0
                        CHANNELS 3 Zrotation Xrotation Yrotation
                        End Site
                        {
                            OFFSET -11.450264930725098 0.0 0.0
                        }
                    }
                }
            }
        }
    }
}
MOTION
Frames: 6
Frame Time: 0.03333333333333333
-2.2973403930664062 69.94025421142578 -94.67758178710938 138.59146872691636 -52.15493293683027 141.59414907298722 -4.200332054562813 -24.787297251454298 8.495315875936864 21.250315403165736 51.0287399875869 -32.24867160836487 -3.1805546814635164e-15 -4.4139062980501586e-32 1.5902773407317582e-15 -4.274899196165146 -31.759993672052147 -10.651577047346844 -1.9333832809728184 64.93019272663385 7.073331226991972 -1.5902773407317584e-15 0.0 0.0 -1.5692360780737178 -11.449598619563597 2.5465983965778354 -6.954663764813546 2.259604088885797e-06 -1.9999390199507974e-07 3.3213280135781234 12.242346799107903 -15.394604473239093 -45.00268418997165 26.92082395263309 94.00579700121646 -45.88105733033552 -1.4120079794710613e-06 -1.3572148278425244e-06 0.0 0.0 6.3611093629270335e-15 66.80507811079978 22.691907286204124 -99.16310360955544 53.53918912510937 9.160224113944723e-07 -4.882127518046887e-07 -8.827812596100317e-32 -3.1805546814635168e-15 -3.1805546814635168e-15
-2.2833480834960938 69.94769287109375 -94.655517578125 138.36049854272122 -51.97996225995373 141.41413862350936 -4.363048557612798 -24.76144816741565 8.646863434579213 21.74087278458147 51.0159340497838 -32.84484197250615 -5.517382872562698e-33 -3.9756933518293955e-16 -1.5902773407317582e-15 -4.280361745696692 -31.7351231876747 -10.612638615618236 -1.4846613939464388 64.92018470535592 6.594606638391053 -1.5902773407317584e-15 3.975693351829396e-16 1.5902773407317584e-15 -1.5982382369784578 -11.41774464395879 2.574090266462187 -7.097205015468861 -2.920484132634255e-07 6.90047709257333e-07 3.315714850928196 12.233962444850418 -15.422320311476302 -44.840651726192256 27.003342465083122 93.91704147876219 -45.888003997031035 1.9136553637965346e-07 9.206404244061641e-07 -1.7655625192200634e-31 3.1805546814635168e-15 6.3611093629270335e-15 66.4422787192654 22.568947557836864 -99.1973443348427 53.296390105581445 8.931568658498837e-07 -1.093230532402708e-06 -6.3611093629270335e-15 3.1805546814635168e-15 3.1805546814635168e-15
-2.2707672119140625 69.94750213623047 -94.63552856445312 138.39891327429987 -51.93645231653537 141.44262974731896 -4.4954131831227135 -24.74172249221936 8.765764340426342 21.831722608954852 51.13346384083907 -33.051778250577975 1.5902773407317584e-15 0.0 0.0 -4.160911782993326 -31.743976410015577 -10.589473965451536 -1.1768526311772387 64.97382708684414 6.254351912374031 1.5902773407317582e-15 0.0 0.0 -1.588744986180638 -11.355567151950831 2.578342452564034 -7.060010729613003 -1.4820362728723246e-07 -6.182634307807267e-07 3.251539748636882 12.165730021259073 -15.383553890705128 -44.581108695549084 27.110165623903647 93.79471821438305 -45.875807426907556 2.0254395524476027e-06 -8.404893989234614e-08 0.0 7.951386703658792e-16 0.0 65.99095348309746 22.540659433370934 -99.23610626907697 53.14447302580194 7.99353742873754e-07 3.668815979443608e-06 -1.7655625192200634e-31 -3.1805546814635164e-15 -6.361109362927033e-15
-2.2305145263671875 69.94218444824219 -94.60006713867188 138.66280122813717 -51.995302709794444 141.65186479787127 -4.450083203643594 -24.685434403399814 8.9756920499487 21.97777593660592 51.19430923067222 -33.35876128188174 -3.1805546814635164e-15 0.0 0.0 -4.037706106442304 -31.69786873297063 -10.668139970314986 -1.7155141118540518 64.88250870493995 6.802871028295447 1.5902773407317588e-15 3.975693351829397e-16 -5.517382872562698e-33 -1.5572676789044864 -11.329647915257226 2.4755596826538384 -6.838624581150471 1.6521380075911464e-06 4.902944761170986e-07 3.1387561467944343 12.089215861445252 -15.288138182748963 -44.50159718390884 27.24286746936898 93.82765178325 -45.95136551383604 3.1373118525814197e-06 2.989026853394076e-06 -1.7655625192200634e-31 3.1805546814635168e-15 6.3611093629270335e-15 65.50872833053481 22.634326879725585 -99.30668999304824 53.009419368451354 -5.400503027960276e-07 -2.4699293713944452e-06 -8.827812596100317e-32 3.1805546814635168e-15 3.1805546814635168e-15
-2.225494384765625 69.93575286865234 -94.5972900390625 138.95033934932496 -52.087684735732246 141.8759360312917 -4.399616071781163 -24.687513160297577 9.068235463856459 21.940061776272177 51.40166799491171 -33.361753202492906 1.5902773407317584e-15 0.0 0.0 -3.9204223439710826 -31.713686284292436 -10.7611215600465 -2.188209648797392 64.83739199151337 7.304781736572612 1.590277340731758e-15 0.0 0.0 -1.5162811587969478 -11.273068757282779 2.4458333291687224 -6.6192264746997225 -9.862877404395203e-07 3.990931766622195e-07 3.1004150595775437 12.031675747998364 -15.294010623238243 -44.24901131450716 27.376209130935138 93.70099277988325 -46.026556709716864 -1.3981497407857601e-07 4.161175726792075e-06 0.0 3.1805546814635168e-15 0.0 65.10112018350944 22.64105402232548 -99.35346875377144 52.83500103089594 2.4781615416682446e-06 -3.354363388207121e-07 0.0 0.0 0.0
-2.2549514770507812 69.93513488769531 -94.612548828125 139.29638201313654 -52.26081208123911 142.15402253578128 -4.205769117630406 -24.714956417658076 9.10699630680216 21.95360748157343 51.604896774974364 -33.41477984703161 8.827812596100317e-32 -6.3611093629270335e-15 1.5902773407317584e-15 -3.870593153936591 -31.722101266889723 -10.84213996513113 -3.076779582781321 64.63638958263705 8.166689339635834 -1.5902773407317582e-15 2.2069531490250793e-32 -1.5902773407317582e-15 -1.4719314141603714 -11.267166840390024 2.456147001142906 -6.309964401398484 7.71488626422301e-07 6.242432245965013e-07 3.0854128298023427 11.97918788835507 -15.360499154738527 -44.37651721434272 27.519290982402843 93.68775072448402 -46.091266048101254 -7.499841077187063e-08 1.033159576379764e-06 -6.3611093629270335e-15 -3.1805546814635168e-15 -1.7655625192200634e-31 64.83613500957551 22.565799027292027 -99.4467007764672 52.55423808957061 4.071260248853787e-06 1.3178005328267749e-07 0.0 0.0 3.1805546814635168e-15
